<?xml version="1.0" encoding="UTF-8" standalone="no"?>
<!DOCTYPE svg PUBLIC "-//W3C//DTD SVG 1.1//EN" "http://www.w3.org/Graphics/SVG/1.1/DTD/svg11.dtd">
<svg width="100%" height="100%" viewBox="0 0 300 189" version="1.1" xmlns="http://www.w3.org/2000/svg" xmlns:xlink="http://www.w3.org/1999/xlink" xml:space="preserve" xmlns:serif="http://www.serif.com/" style="fill-rule:evenodd;clip-rule:evenodd;stroke-linejoin:round;stroke-miterlimit:2;">
    <g id="g10" transform="matrix(1.25,0,0,-1.25,-1019.39,143.611)">
        <g id="g234" transform="matrix(1.92193,0,0,1.92193,828.299,97.4752)">
            <path id="path236" d="M0,0L11.977,-14.467L-6.655,-14.467L0,0Z" style="fill:rgb(0,154,194);fill-rule:nonzero;"/>
        </g>
        <g id="g238" transform="matrix(1.92193,0,0,1.92193,831.69,18.0343)">
            <path id="path240" d="M0,0L35.199,0L51.399,-13.777L9.518,-13.777L0,0Z" style="fill:rgb(142,205,224);fill-rule:nonzero;"/>
        </g>
        <g id="g242" transform="matrix(1.92193,0,0,1.92193,827.083,44.5156)">
            <path id="path244" d="M0,0L29.748,0L37.596,-13.778L2.397,-13.778L0,0Z" style="fill:rgb(0,154,194);fill-rule:nonzero;"/>
        </g>
        <g id="g246" transform="matrix(1.92193,0,0,1.92193,815.508,69.671)">
            <path id="path248" d="M0,0L18.632,0L35.77,-13.089L6.022,-13.089L0,0Z" style="fill:rgb(142,205,224);fill-rule:nonzero;"/>
        </g>
        <g id="g250" transform="matrix(1.92193,0,0,1.92193,849.98,-8.44448)">
            <path id="path252" d="M0,0L3.789,-14.467L36.789,-14.467L41.882,0L0,0Z" style="fill:rgb(0,154,194);fill-rule:nonzero;"/>
        </g>
        <g id="g254" transform="matrix(1.92193,0,0,1.92193,904.924,113.827)">
            <path id="path256" d="M0,0L4.481,0L4.481,-1.321L1.519,-1.321L1.519,-3.592L3.886,-3.592L3.886,-4.888L1.532,-4.888L1.532,-8.877L0,-8.877L0,0Z" style="fill-rule:nonzero;"/>
        </g>
        <g id="g258" transform="matrix(1.92193,0,0,1.92193,916.507,113.827)">
            <path id="path260" d="M0,0L1.532,0L1.532,-3.502L4.139,-3.502L4.139,0L5.67,0L5.67,-8.877L4.139,-8.877L4.139,-4.849L1.532,-4.849L1.532,-8.877L0,-8.877L0,0Z" style="fill-rule:nonzero;"/>
        </g>
        <g id="g262" transform="matrix(1.92193,0,0,1.92193,-862.473,-36.25)">
            <g id="g264">
                <g id="g270" transform="matrix(1,0,0,1,939.053,70.4927)">
                    <path id="path272" d="M0,0C0.975,0 1.355,0.411 1.355,1.347C1.355,2.232 1.038,2.682 0.026,2.682L-1.202,2.682L-1.202,0L0,0ZM-0.012,3.939C0.836,3.939 1.063,4.336 1.063,5.131C1.063,5.914 0.785,6.311 -0.063,6.311L-1.202,6.311L-1.202,3.939L-0.012,3.939ZM-2.708,7.594L0.228,7.594C1.848,7.594 2.633,6.76 2.633,5.272C2.633,4.323 2.393,3.797 1.532,3.438C2.367,3.22 2.988,2.566 2.988,1.27C2.988,-0.526 1.987,-1.283 0.241,-1.283L-2.708,-1.283L-2.708,7.594Z" style="fill-rule:nonzero;"/>
                </g>
                <g id="g274" transform="matrix(1,0,0,1,943.587,77.6123)">
                    <path id="path276" d="M0,0C0,0.526 0.405,0.949 0.924,0.949C1.443,0.949 1.848,0.539 1.848,0C1.848,-0.526 1.443,-0.936 0.911,-0.936C0.405,-0.936 0,-0.526 0,0M0.215,-3.015L-0.62,-2.86L-0.62,-1.911L1.645,-1.911L1.645,-8.402L0.215,-8.402L0.215,-3.015Z" style="fill-rule:nonzero;"/>
                </g>
                <g id="g278" transform="matrix(1,0,0,1,948.283,73.0842)">
                    <path id="path280" d="M0,0L2.101,0C2.089,1.257 1.861,1.693 1.064,1.693C0.418,1.693 0.076,1.359 0,0M-1.544,-0.616C-1.544,1.847 -0.557,2.783 1.051,2.783C2.772,2.783 3.582,1.808 3.582,-0.565L3.582,-1.039L-0.012,-1.039C0.038,-2.527 0.392,-2.86 1.304,-2.86C1.962,-2.86 2.367,-2.592 2.772,-2.284L3.456,-3.284C2.899,-3.759 2.241,-4.041 1.317,-4.041C-0.595,-4.041 -1.544,-3.053 -1.544,-0.616" style="fill-rule:nonzero;"/>
                </g>
                <g id="g282" transform="matrix(1,0,0,1,953.336,70.8904)">
                    <path id="path284" d="M0,0L0,7.658L1.443,7.658L1.443,-0.179C1.443,-0.59 1.544,-0.679 1.898,-0.679C2,-0.679 2.101,-0.667 2.101,-0.667L2.278,-1.655C2.075,-1.732 1.708,-1.821 1.367,-1.821C0.278,-1.821 0,-1.27 0,0" style="fill-rule:nonzero;"/>
                </g>
                <g id="g286" transform="matrix(1,0,0,1,958.019,73.0842)">
                    <path id="path288" d="M0,0L2.101,0C2.089,1.257 1.861,1.693 1.064,1.693C0.418,1.693 0.076,1.359 0,0M-1.544,-0.616C-1.544,1.847 -0.557,2.783 1.051,2.783C2.772,2.783 3.582,1.808 3.582,-0.565L3.582,-1.039L-0.012,-1.039C0.038,-2.527 0.392,-2.86 1.304,-2.86C1.962,-2.86 2.367,-2.592 2.772,-2.284L3.456,-3.284C2.899,-3.759 2.241,-4.041 1.317,-4.041C-0.595,-4.041 -1.544,-3.053 -1.544,-0.616" style="fill-rule:nonzero;"/>
                </g>
                <g id="g290" transform="matrix(1,0,0,1,962.464,75.7009)">
                    <path id="path292" d="M0,0L0.683,0L0.683,0.898C0.683,2.578 1.506,2.938 2.468,2.938C3.063,2.938 3.519,2.81 3.86,2.617L3.455,1.578C3.24,1.693 3.025,1.745 2.747,1.745C2.304,1.745 2.114,1.527 2.114,0.988L2.114,0L3.253,0L3.253,-1.129L2.114,-1.129L2.114,-6.491L0.683,-6.491L0.683,-1.129L0,-1.129L0,0Z" style="fill-rule:nonzero;"/>
                </g>
                <g id="g294" transform="matrix(1,0,0,1,968.085,73.0842)">
                    <path id="path296" d="M0,0L2.101,0C2.088,1.257 1.861,1.693 1.063,1.693C0.417,1.693 0.076,1.359 0,0M-1.544,-0.616C-1.544,1.847 -0.557,2.783 1.05,2.783C2.772,2.783 3.582,1.808 3.582,-0.565L3.582,-1.039L-0.013,-1.039C0.038,-2.527 0.392,-2.86 1.303,-2.86C1.961,-2.86 2.367,-2.592 2.772,-2.284L3.456,-3.284C2.898,-3.759 2.24,-4.041 1.316,-4.041C-0.595,-4.041 -1.544,-3.053 -1.544,-0.616" style="fill-rule:nonzero;"/>
                </g>
                <g id="g298" transform="matrix(1,0,0,1,973.137,70.8904)">
                    <path id="path300" d="M0,0L0,7.658L1.443,7.658L1.443,-0.179C1.443,-0.59 1.544,-0.679 1.898,-0.679C2,-0.679 2.101,-0.667 2.101,-0.667L2.278,-1.655C2.075,-1.732 1.708,-1.821 1.367,-1.821C0.278,-1.821 0,-1.27 0,0" style="fill-rule:nonzero;"/>
                </g>
                <g id="g302" transform="matrix(1,0,0,1,980.073,70.7753)">
                    <path id="path304" d="M0,0L0,3.36C-0.279,3.63 -0.671,3.899 -1.127,3.899C-1.924,3.899 -2.202,3.54 -2.202,1.68C-2.202,-0.167 -1.962,-0.526 -1.215,-0.526C-0.696,-0.526 -0.342,-0.334 0,0M-3.747,1.629C-3.747,4.207 -3.05,5.092 -1.582,5.092C-0.899,5.092 -0.355,4.733 0,4.4L0,7.773L1.443,7.773L1.443,-1.565L0.291,-1.565L0.127,-0.924C-0.355,-1.45 -0.886,-1.732 -1.544,-1.732C-2.835,-1.732 -3.747,-0.988 -3.747,1.629" style="fill-rule:nonzero;"/>
                </g>
                <g id="g306" transform="matrix(1,0,0,1,923.865,64.2183)">
                    <path id="path308" d="M0,0L0.776,0L0.776,-8.436L0.23,-8.436L0.048,-7.614C-0.436,-8.092 -1.139,-8.56 -2.084,-8.56C-3.308,-8.56 -4.265,-7.884 -4.265,-6.054L-4.265,0L-3.502,0L-3.502,-5.919C-3.502,-7.331 -3.078,-7.884 -2.036,-7.884C-1.066,-7.884 -0.388,-7.38 0,-7.012L0,0Z" style="fill-rule:nonzero;"/>
                </g>
                <g id="g310" transform="matrix(1,0,0,1,926.725,61.6519)">
                    <path id="path312" d="M0,0L0.508,0L0.678,-0.847C1.248,-0.283 1.854,0.122 2.569,0.122C3.393,0.122 3.998,-0.369 3.998,-1.387L3.998,-5.87L3.271,-5.87L3.271,-1.584C3.271,-0.798 2.993,-0.528 2.399,-0.528C1.817,-0.528 1.248,-0.909 0.727,-1.376L0.727,-5.87L0,-5.87L0,0Z" style="fill-rule:nonzero;"/>
                </g>
                <g id="g314" transform="matrix(1,0,0,1,932.747,63.5676)">
                    <path id="path316" d="M0,0C0,0.331 0.23,0.577 0.545,0.577C0.872,0.577 1.103,0.331 1.103,0C1.103,-0.32 0.872,-0.565 0.545,-0.565C0.23,-0.565 0,-0.32 0,0M0.254,-2.493L-0.57,-2.383L-0.57,-1.916L0.981,-1.916L0.981,-7.786L0.254,-7.786L0.254,-2.493Z" style="fill-rule:nonzero;"/>
                </g>
                <g id="g318" transform="matrix(1,0,0,1,935.122,61.6519)">
                    <path id="path320" d="M0,0L0.776,0L1.927,-3.708C2.084,-4.213 2.229,-4.851 2.303,-5.231L2.314,-5.231C2.375,-4.863 2.532,-4.224 2.69,-3.697L3.829,0L4.58,0L2.641,-5.87L1.902,-5.87L0,0Z" style="fill-rule:nonzero;"/>
                </g>
                <g id="g322" transform="matrix(1,0,0,1,944.148,59.1831)">
                    <path id="path324" d="M0,0C0,1.498 -0.435,1.99 -1.333,1.99C-2.144,1.99 -2.677,1.535 -2.762,0L0,0ZM-1.187,-2.898C-0.52,-2.898 -0.121,-2.665 0.255,-2.37L0.655,-2.885C0.158,-3.291 -0.387,-3.524 -1.187,-3.524C-2.568,-3.524 -3.538,-2.739 -3.538,-0.478C-3.538,1.757 -2.604,2.592 -1.32,2.592C0.024,2.592 0.751,1.732 0.751,-0.27L0.751,-0.577L-2.775,-0.577C-2.75,-2.358 -2.277,-2.898 -1.187,-2.898" style="fill-rule:nonzero;"/>
                </g>
                <g id="g326" transform="matrix(1,0,0,1,946.499,61.6519)">
                    <path id="path328" d="M0,0L0.508,0L0.678,-0.995C1.163,-0.393 1.745,0.086 2.436,0.086C2.496,0.086 2.605,0.073 2.617,0.061L2.544,-0.725C2.496,-0.7 2.399,-0.688 2.29,-0.688C1.697,-0.688 1.248,-0.995 0.727,-1.559L0.727,-5.87L0,-5.87L0,0Z" style="fill-rule:nonzero;"/>
                </g>
                <g id="g330" transform="matrix(1,0,0,1,949.783,56.2978)">
                    <path id="path332" d="M0,0L0.315,0.528C0.763,0.196 1.248,-0.025 1.878,-0.025C2.739,-0.025 3.09,0.368 3.09,1.007C3.09,1.719 2.775,1.928 1.782,2.247C0.921,2.517 0.279,2.922 0.279,3.978C0.279,4.802 0.836,5.477 1.987,5.477C2.69,5.477 3.162,5.305 3.563,5.071L3.296,4.494C2.872,4.728 2.532,4.85 2,4.85C1.346,4.85 0.97,4.58 0.97,3.991C0.97,3.352 1.26,3.18 2.072,2.91C3.042,2.591 3.792,2.259 3.792,1.044C3.792,-0.098 3.078,-0.639 1.866,-0.639C1.09,-0.639 0.424,-0.344 0,0" style="fill-rule:nonzero;"/>
                </g>
                <g id="g334" transform="matrix(1,0,0,1,955.26,63.5676)">
                    <path id="path336" d="M0,0C0,0.331 0.23,0.577 0.545,0.577C0.872,0.577 1.103,0.331 1.103,0C1.103,-0.32 0.872,-0.565 0.545,-0.565C0.23,-0.565 0,-0.32 0,0M0.254,-2.493L-0.57,-2.383L-0.57,-1.916L0.981,-1.916L0.981,-7.786L0.254,-7.786L0.254,-2.493Z" style="fill-rule:nonzero;"/>
                </g>
                <g id="g338" transform="matrix(1,0,0,1,957.683,61.0501)">
                    <path id="path340" d="M0,0L0,0.602L0.703,0.602L0.703,2.149L1.417,2.321L1.417,0.602L2.629,0.602L2.629,0L1.417,0L1.417,-4.249C1.417,-4.605 1.575,-4.79 1.902,-4.79C2.205,-4.79 2.424,-4.691 2.581,-4.617L2.763,-5.158C2.52,-5.28 2.254,-5.391 1.866,-5.391C1.211,-5.391 0.703,-5.084 0.703,-4.286L0.703,0L0,0Z" style="fill-rule:nonzero;"/>
                </g>
                <g id="g342" transform="matrix(1,0,0,1,961.597,53.8048)">
                    <path id="path344" d="M0,0C1.03,0.331 1.406,0.724 1.769,1.977L1.514,1.977L-0.315,7.847L0.46,7.847L1.587,4.089C1.769,3.463 1.89,2.91 1.976,2.493L1.987,2.493C2.072,2.91 2.217,3.439 2.411,4.089L3.526,7.847L4.277,7.847L2.363,1.72C1.842,0.086 1.357,-0.258 0.181,-0.577L0,0Z" style="fill-rule:nonzero;"/>
                </g>
                <g id="g346" transform="matrix(1,0,0,1,973.301,58.6926)">
                    <path id="path348" d="M0,0C0,1.854 -0.545,2.493 -1.551,2.493C-2.557,2.493 -3.09,1.891 -3.09,0.036C-3.09,-1.817 -2.545,-2.444 -1.539,-2.444C-0.533,-2.444 0,-1.842 0,0M-3.853,0.012C-3.853,2.198 -2.908,3.082 -1.563,3.082C-0.231,3.082 0.763,2.21 0.763,0.024C0.763,-2.149 -0.182,-3.034 -1.539,-3.034C-2.884,-3.034 -3.853,-2.161 -3.853,0.012" style="fill-rule:nonzero;"/>
                </g>
                <g id="g350" transform="matrix(1,0,0,1,975.07,61.0501)">
                    <path id="path352" d="M0,0L0,0.602L0.691,0.602L0.691,2.051C0.691,3.156 1.308,3.598 2.06,3.598C2.52,3.598 2.859,3.513 3.199,3.291L2.92,2.751C2.666,2.886 2.436,2.972 2.133,2.972C1.673,2.972 1.417,2.689 1.417,2.039L1.417,0.602L2.593,0.602L2.593,0L1.417,0L1.417,-5.268L0.691,-5.268L0.691,0L0,0Z" style="fill-rule:nonzero;"/>
                </g>
                <g id="g354" transform="matrix(1,0,0,1,922.81,47.6834)">
                    <path id="path356" d="M0,0C-0.267,0.922 -0.376,1.45 -0.448,1.916L-0.473,1.916C-0.558,1.437 -0.679,0.897 -0.945,0L-1.673,-2.394L0.703,-2.394L0,0ZM-2.703,-5.771L-3.478,-5.771L-0.873,2.665L-0.036,2.665L2.508,-5.771L1.684,-5.771L0.896,-3.057L-1.878,-3.057L-2.703,-5.771Z" style="fill-rule:nonzero;"/>
                </g>
                <g id="g358" transform="matrix(1,0,0,1,930.201,44.7858)">
                    <path id="path360" d="M0,0C0,1.965 -0.437,2.48 -1.308,2.48C-1.975,2.48 -2.46,2.063 -2.884,1.67L-2.884,-1.633C-2.46,-2.063 -1.962,-2.358 -1.381,-2.358C-0.473,-2.358 0,-1.818 0,0M-3.611,2.996L-3.102,2.996L-2.932,2.21C-2.496,2.701 -1.89,3.119 -1.199,3.119C-0.048,3.119 0.763,2.296 0.763,0.061C0.763,-2.051 0.061,-2.997 -1.248,-2.997C-1.975,-2.997 -2.508,-2.616 -2.884,-2.223L-2.884,-5.379L-3.611,-5.379L-3.611,2.996Z" style="fill-rule:nonzero;"/>
                </g>
                <g id="g362" transform="matrix(1,0,0,1,936.223,44.7858)">
                    <path id="path364" d="M0,0C0,1.965 -0.437,2.48 -1.308,2.48C-1.975,2.48 -2.46,2.063 -2.884,1.67L-2.884,-1.633C-2.46,-2.063 -1.962,-2.358 -1.381,-2.358C-0.473,-2.358 0,-1.818 0,0M-3.611,2.996L-3.102,2.996L-2.932,2.21C-2.496,2.701 -1.891,3.119 -1.2,3.119C-0.048,3.119 0.763,2.296 0.763,0.061C0.763,-2.051 0.061,-2.997 -1.248,-2.997C-1.975,-2.997 -2.508,-2.616 -2.884,-2.223L-2.884,-5.379L-3.611,-5.379L-3.611,2.996Z" style="fill-rule:nonzero;"/>
                </g>
                <g id="g366" transform="matrix(1,0,0,1,938.647,42.968)">
                    <path id="path368" d="M0,0L0,7.724L0.727,7.724L0.727,-0.073C0.727,-0.442 0.873,-0.552 1.139,-0.552C1.297,-0.552 1.393,-0.516 1.393,-0.516L1.514,-1.043C1.357,-1.105 1.151,-1.154 0.945,-1.154C0.375,-1.154 0,-0.859 0,0" style="fill-rule:nonzero;"/>
                </g>
                <g id="g370" transform="matrix(1,0,0,1,941.555,49.6977)">
                    <path id="path372" d="M0,0C0,0.332 0.23,0.577 0.545,0.577C0.872,0.577 1.103,0.332 1.103,0C1.103,-0.319 0.872,-0.565 0.545,-0.565C0.23,-0.565 0,-0.319 0,0M0.254,-2.493L-0.57,-2.383L-0.57,-1.915L0.981,-1.915L0.981,-7.786L0.254,-7.786L0.254,-2.493Z" style="fill-rule:nonzero;"/>
                </g>
                <g id="g374" transform="matrix(1,0,0,1,947.721,45.3133)">
                    <path id="path376" d="M0,0C0,1.499 -0.435,1.99 -1.332,1.99C-2.144,1.99 -2.677,1.536 -2.762,0L0,0ZM-1.187,-2.898C-0.52,-2.898 -0.121,-2.664 0.255,-2.37L0.655,-2.885C0.158,-3.291 -0.387,-3.524 -1.187,-3.524C-2.568,-3.524 -3.538,-2.739 -3.538,-0.479C-3.538,1.757 -2.604,2.592 -1.32,2.592C0.025,2.592 0.752,1.732 0.752,-0.27L0.752,-0.577L-2.775,-0.577C-2.75,-2.358 -2.277,-2.898 -1.187,-2.898" style="fill-rule:nonzero;"/>
                </g>
                <g id="g378" transform="matrix(1,0,0,1,953.392,43.2138)">
                    <path id="path380" d="M0,0L0,3.291C-0.424,3.733 -0.92,4.053 -1.514,4.053C-2.423,4.053 -2.895,3.512 -2.895,1.695C-2.895,-0.27 -2.447,-0.786 -1.575,-0.786C-0.92,-0.786 -0.435,-0.405 0,0M-3.647,1.633C-3.647,3.745 -2.956,4.691 -1.647,4.691C-0.92,4.691 -0.375,4.273 0,3.88L0,7.479L0.715,7.479L0.715,-1.302L0.207,-1.302L0.037,-0.552C-0.399,-1.032 -0.993,-1.425 -1.684,-1.425C-2.847,-1.425 -3.647,-0.614 -3.647,1.633" style="fill-rule:nonzero;"/>
                </g>
                <g id="g382" transform="matrix(1,0,0,1,958.07,42.7717)">
                    <path id="path384" d="M0,0L0.388,0.552C0.957,0.012 1.563,-0.32 2.436,-0.32C3.659,-0.32 4.156,0.283 4.156,1.29C4.156,2.431 3.562,2.763 2.448,3.229C1.212,3.746 0.46,4.236 0.46,5.624C0.46,6.963 1.345,7.687 2.654,7.687C3.55,7.687 4.095,7.478 4.593,7.122L4.265,6.521C3.804,6.853 3.332,7.036 2.69,7.036C1.842,7.036 1.212,6.607 1.212,5.649C1.212,4.654 1.673,4.384 2.726,3.942C4.071,3.377 4.944,2.873 4.944,1.314C4.944,0.073 4.277,-0.983 2.484,-0.983C1.442,-0.983 0.57,-0.565 0,0" style="fill-rule:nonzero;"/>
                </g>
                <g id="g386" transform="matrix(1,0,0,1,964.358,44.8347)">
                    <path id="path388" d="M0,0C0,2.222 0.945,3.07 2.266,3.07C2.981,3.07 3.453,2.825 3.89,2.383L3.453,1.879C3.114,2.247 2.811,2.444 2.241,2.444C1.284,2.444 0.763,1.903 0.763,0.025C0.763,-1.854 1.272,-2.419 2.302,-2.419C2.919,-2.419 3.247,-2.124 3.525,-1.829L3.998,-2.284C3.611,-2.727 3.077,-3.046 2.266,-3.046C0.933,-3.046 0,-2.198 0,0" style="fill-rule:nonzero;"/>
                </g>
                <g id="g390" transform="matrix(1,0,0,1,969.847,49.6977)">
                    <path id="path392" d="M0,0C0,0.332 0.23,0.577 0.545,0.577C0.872,0.577 1.103,0.332 1.103,0C1.103,-0.319 0.872,-0.565 0.545,-0.565C0.23,-0.565 0,-0.319 0,0M0.254,-2.493L-0.57,-2.383L-0.57,-1.915L0.981,-1.915L0.981,-7.786L0.254,-7.786L0.254,-2.493Z" style="fill-rule:nonzero;"/>
                </g>
                <g id="g394" transform="matrix(1,0,0,1,976.013,45.3133)">
                    <path id="path396" d="M0,0C0,1.499 -0.436,1.99 -1.332,1.99C-2.144,1.99 -2.677,1.536 -2.762,0L0,0ZM-1.187,-2.898C-0.52,-2.898 -0.121,-2.664 0.255,-2.37L0.655,-2.885C0.158,-3.291 -0.387,-3.524 -1.187,-3.524C-2.568,-3.524 -3.538,-2.739 -3.538,-0.479C-3.538,1.757 -2.604,2.592 -1.32,2.592C0.025,2.592 0.752,1.732 0.752,-0.27L0.752,-0.577L-2.775,-0.577C-2.75,-2.358 -2.277,-2.898 -1.187,-2.898" style="fill-rule:nonzero;"/>
                </g>
                <g id="g398" transform="matrix(1,0,0,1,978.364,47.7821)">
                    <path id="path400" d="M0,0L0.508,0L0.678,-0.847C1.248,-0.283 1.854,0.122 2.569,0.122C3.393,0.122 3.998,-0.369 3.998,-1.388L3.998,-5.87L3.271,-5.87L3.271,-1.584C3.271,-0.798 2.992,-0.528 2.399,-0.528C1.817,-0.528 1.248,-0.909 0.727,-1.376L0.727,-5.87L0,-5.87L0,0Z" style="fill-rule:nonzero;"/>
                </g>
                <g id="g402" transform="matrix(1,0,0,1,983.914,44.8347)">
                    <path id="path404" d="M0,0C0,2.222 0.945,3.07 2.265,3.07C2.981,3.07 3.453,2.825 3.89,2.383L3.453,1.879C3.114,2.247 2.811,2.444 2.241,2.444C1.284,2.444 0.763,1.903 0.763,0.025C0.763,-1.854 1.272,-2.419 2.302,-2.419C2.919,-2.419 3.247,-2.124 3.525,-1.829L3.998,-2.284C3.611,-2.727 3.078,-3.046 2.265,-3.046C0.933,-3.046 0,-2.198 0,0" style="fill-rule:nonzero;"/>
                </g>
                <g id="g406" transform="matrix(1,0,0,1,992.407,45.3133)">
                    <path id="path408" d="M0,0C0,1.499 -0.435,1.99 -1.332,1.99C-2.144,1.99 -2.677,1.536 -2.762,0L0,0ZM-1.187,-2.898C-0.52,-2.898 -0.121,-2.664 0.255,-2.37L0.655,-2.885C0.158,-3.291 -0.387,-3.524 -1.187,-3.524C-2.568,-3.524 -3.538,-2.739 -3.538,-0.479C-3.538,1.757 -2.604,2.592 -1.32,2.592C0.024,2.592 0.752,1.732 0.752,-0.27L0.752,-0.577L-2.775,-0.577C-2.75,-2.358 -2.277,-2.898 -1.187,-2.898" style="fill-rule:nonzero;"/>
                </g>
                <g id="g410" transform="matrix(1,0,0,1,994.152,42.428)">
                    <path id="path412" d="M0,0L0.315,0.528C0.763,0.196 1.248,-0.025 1.878,-0.025C2.739,-0.025 3.09,0.368 3.09,1.007C3.09,1.719 2.775,1.928 1.782,2.247C0.921,2.517 0.279,2.922 0.279,3.978C0.279,4.801 0.836,5.477 1.987,5.477C2.69,5.477 3.162,5.305 3.562,5.071L3.295,4.494C2.872,4.728 2.532,4.85 2,4.85C1.346,4.85 0.97,4.58 0.97,3.991C0.97,3.352 1.26,3.18 2.072,2.91C3.042,2.591 3.793,2.259 3.793,1.044C3.793,-0.098 3.078,-0.639 1.866,-0.639C1.09,-0.639 0.424,-0.344 0,0" style="fill-rule:nonzero;"/>
                </g>
            </g>
        </g>
    </g>
</svg>
